<svg id="visual" viewBox="0 0 200 3500" width="200" height="3500" xmlns="http://www.w3.org/2000/svg" xmlns:xlink="http://www.w3.org/1999/xlink" version="1.1"><rect x="0" y="0" width="200" height="3500" fill="#ffffff"></rect><path d="M50 3500L49.7 3435.2C49.3 3370.3 48.7 3240.7 47.7 3111C46.7 2981.3 45.3 2851.7 49.3 2722C53.3 2592.3 62.7 2462.7 61.3 2333C60 2203.3 48 2073.7 43.5 1944.2C39 1814.7 42 1685.3 45 1555.8C48 1426.3 51 1296.7 56.7 1167C62.3 1037.3 70.7 907.7 76 778C81.3 648.3 83.7 518.7 77.5 389C71.3 259.3 56.7 129.7 49.3 64.8L42 0L200 0L200 64.8C200 129.7 200 259.3 200 389C200 518.7 200 648.3 200 778C200 907.7 200 1037.3 200 1167C200 1296.7 200 1426.3 200 1555.8C200 1685.3 200 1814.7 200 1944.2C200 2073.7 200 2203.3 200 2333C200 2462.7 200 2592.3 200 2722C200 2851.7 200 2981.3 200 3111C200 3240.7 200 3370.3 200 3435.2L200 3500Z" fill="#ffa200"></path><path d="M103 3500L102.7 3435.2C102.3 3370.3 101.7 3240.7 94.8 3111C88 2981.3 75 2851.7 71.7 2722C68.3 2592.3 74.7 2462.7 80 2333C85.3 2203.3 89.7 2073.7 90.3 1944.2C91 1814.7 88 1685.3 88.7 1555.8C89.3 1426.3 93.7 1296.7 98.2 1167C102.7 1037.3 107.3 907.7 105.8 778C104.3 648.3 96.7 518.7 95.3 389C94 259.3 99 129.7 101.5 64.8L104 0L200 0L200 64.8C200 129.7 200 259.3 200 389C200 518.7 200 648.3 200 778C200 907.7 200 1037.3 200 1167C200 1296.7 200 1426.3 200 1555.8C200 1685.3 200 1814.7 200 1944.2C200 2073.7 200 2203.3 200 2333C200 2462.7 200 2592.3 200 2722C200 2851.7 200 2981.3 200 3111C200 3240.7 200 3370.3 200 3435.2L200 3500Z" fill="#f78a16"></path><path d="M99 3500L101.7 3435.2C104.3 3370.3 109.7 3240.7 108.2 3111C106.7 2981.3 98.3 2851.7 100.2 2722C102 2592.3 114 2462.7 119.2 2333C124.3 2203.3 122.7 2073.7 120.3 1944.2C118 1814.7 115 1685.3 109.2 1555.8C103.3 1426.3 94.7 1296.7 93.3 1167C92 1037.3 98 907.7 102.7 778C107.3 648.3 110.7 518.7 115.3 389C120 259.3 126 129.7 129 64.8L132 0L200 0L200 64.8C200 129.7 200 259.3 200 389C200 518.7 200 648.3 200 778C200 907.7 200 1037.3 200 1167C200 1296.7 200 1426.3 200 1555.8C200 1685.3 200 1814.7 200 1944.2C200 2073.7 200 2203.3 200 2333C200 2462.7 200 2592.3 200 2722C200 2851.7 200 2981.3 200 3111C200 3240.7 200 3370.3 200 3435.2L200 3500Z" fill="#ec7323"></path><path d="M115 3500L119.7 3435.2C124.3 3370.3 133.7 3240.7 134.2 3111C134.7 2981.3 126.3 2851.7 121.8 2722C117.3 2592.3 116.7 2462.7 117.3 2333C118 2203.3 120 2073.7 121.8 1944.2C123.7 1814.7 125.3 1685.3 125.2 1555.8C125 1426.3 123 1296.7 125.2 1167C127.3 1037.3 133.7 907.7 133.3 778C133 648.3 126 518.7 126.2 389C126.3 259.3 133.7 129.7 137.3 64.8L141 0L200 0L200 64.8C200 129.7 200 259.3 200 389C200 518.7 200 648.3 200 778C200 907.7 200 1037.3 200 1167C200 1296.7 200 1426.3 200 1555.8C200 1685.3 200 1814.7 200 1944.2C200 2073.7 200 2203.3 200 2333C200 2462.7 200 2592.3 200 2722C200 2851.7 200 2981.3 200 3111C200 3240.7 200 3370.3 200 3435.2L200 3500Z" fill="#de5d2b"></path><path d="M134 3500L139.3 3435.2C144.7 3370.3 155.3 3240.7 160 3111C164.7 2981.3 163.3 2851.7 159.3 2722C155.3 2592.3 148.7 2462.7 147.2 2333C145.7 2203.3 149.3 2073.7 153.2 1944.2C157 1814.7 161 1685.3 160.2 1555.8C159.3 1426.3 153.7 1296.7 150 1167C146.3 1037.3 144.7 907.7 145.5 778C146.3 648.3 149.7 518.7 149.8 389C150 259.3 147 129.7 145.5 64.8L144 0L200 0L200 64.8C200 129.7 200 259.3 200 389C200 518.7 200 648.3 200 778C200 907.7 200 1037.3 200 1167C200 1296.7 200 1426.3 200 1555.8C200 1685.3 200 1814.7 200 1944.2C200 2073.7 200 2203.3 200 2333C200 2462.7 200 2592.3 200 2722C200 2851.7 200 2981.3 200 3111C200 3240.7 200 3370.3 200 3435.2L200 3500Z" fill="#cd4830"></path><path d="M168 3500L168 3435.2C168 3370.3 168 3240.7 170.3 3111C172.7 2981.3 177.3 2851.7 179.7 2722C182 2592.3 182 2462.7 178.2 2333C174.3 2203.3 166.7 2073.7 165 1944.2C163.3 1814.7 167.7 1685.3 167.7 1555.8C167.7 1426.3 163.3 1296.7 165.5 1167C167.7 1037.3 176.3 907.7 180.2 778C184 648.3 183 518.7 180 389C177 259.3 172 129.7 169.5 64.8L167 0L200 0L200 64.8C200 129.7 200 259.3 200 389C200 518.7 200 648.3 200 778C200 907.7 200 1037.3 200 1167C200 1296.7 200 1426.3 200 1555.8C200 1685.3 200 1814.7 200 1944.2C200 2073.7 200 2203.3 200 2333C200 2462.7 200 2592.3 200 2722C200 2851.7 200 2981.3 200 3111C200 3240.7 200 3370.3 200 3435.2L200 3500Z" fill="#bb3434"></path></svg>