<svg id="visual" viewBox="0 0 200 7000" width="200" height="7000" xmlns="http://www.w3.org/2000/svg" xmlns:xlink="http://www.w3.org/1999/xlink" version="1.1"><path d="M63 7000L59.7 6883.3C56.3 6766.7 49.7 6533.3 56.3 6300C63 6066.7 83 5833.3 91.2 5600C99.3 5366.7 95.7 5133.3 88 4900C80.3 4666.7 68.7 4433.3 69.7 4200C70.7 3966.7 84.3 3733.3 81.2 3500C78 3266.7 58 3033.3 52 2800C46 2566.7 54 2333.3 58.5 2100C63 1866.7 64 1633.3 69 1400C74 1166.7 83 933.3 77.8 700C72.7 466.7 53.3 233.3 43.7 116.7L34 0L200 0L200 116.7C200 233.3 200 466.7 200 700C200 933.3 200 1166.7 200 1400C200 1633.3 200 1866.7 200 2100C200 2333.3 200 2566.7 200 2800C200 3033.3 200 3266.7 200 3500C200 3733.3 200 3966.7 200 4200C200 4433.3 200 4666.7 200 4900C200 5133.3 200 5366.7 200 5600C200 5833.3 200 6066.7 200 6300C200 6533.3 200 6766.7 200 6883.3L200 7000Z" fill="#ffa200"></path><path d="M53 7000L54.2 6883.3C55.3 6766.7 57.7 6533.3 66.3 6300C75 6066.7 90 5833.3 90.8 5600C91.7 5366.7 78.3 5133.3 72.5 4900C66.7 4666.7 68.3 4433.3 72.5 4200C76.7 3966.7 83.3 3733.3 84.7 3500C86 3266.7 82 3033.3 77.5 2800C73 2566.7 68 2333.3 75.2 2100C82.3 1866.7 101.7 1633.3 105.8 1400C110 1166.7 99 933.3 98.5 700C98 466.7 108 233.3 113 116.7L118 0L200 0L200 116.7C200 233.3 200 466.7 200 700C200 933.3 200 1166.7 200 1400C200 1633.3 200 1866.7 200 2100C200 2333.3 200 2566.7 200 2800C200 3033.3 200 3266.7 200 3500C200 3733.3 200 3966.7 200 4200C200 4433.3 200 4666.7 200 4900C200 5133.3 200 5366.7 200 5600C200 5833.3 200 6066.7 200 6300C200 6533.3 200 6766.7 200 6883.3L200 7000Z" fill="#f78a16"></path><path d="M102 7000L99.7 6883.3C97.3 6766.7 92.7 6533.3 96.8 6300C101 6066.7 114 5833.3 117.5 5600C121 5366.7 115 5133.3 116.7 4900C118.3 4666.7 127.7 4433.3 123.5 4200C119.3 3966.7 101.7 3733.3 100.5 3500C99.3 3266.7 114.7 3033.3 116.3 2800C118 2566.7 106 2333.3 101.2 2100C96.3 1866.7 98.7 1633.3 105 1400C111.3 1166.7 121.7 933.3 119.5 700C117.3 466.7 102.7 233.3 95.3 116.7L88 0L200 0L200 116.7C200 233.3 200 466.7 200 700C200 933.3 200 1166.7 200 1400C200 1633.3 200 1866.7 200 2100C200 2333.3 200 2566.7 200 2800C200 3033.3 200 3266.7 200 3500C200 3733.3 200 3966.7 200 4200C200 4433.3 200 4666.7 200 4900C200 5133.3 200 5366.7 200 5600C200 5833.3 200 6066.7 200 6300C200 6533.3 200 6766.7 200 6883.3L200 7000Z" fill="#ec7323"></path><path d="M107 7000L114.2 6883.3C121.3 6766.7 135.7 6533.3 135.8 6300C136 6066.7 122 5833.3 115.5 5600C109 5366.7 110 5133.3 112 4900C114 4666.7 117 4433.3 123.3 4200C129.7 3966.7 139.3 3733.3 144.5 3500C149.7 3266.7 150.3 3033.3 149.2 2800C148 2566.7 145 2333.3 138.7 2100C132.3 1866.7 122.7 1633.3 119.3 1400C116 1166.7 119 933.3 119.3 700C119.7 466.7 117.3 233.3 116.2 116.7L115 0L200 0L200 116.7C200 233.3 200 466.7 200 700C200 933.3 200 1166.7 200 1400C200 1633.3 200 1866.7 200 2100C200 2333.3 200 2566.7 200 2800C200 3033.3 200 3266.7 200 3500C200 3733.3 200 3966.7 200 4200C200 4433.3 200 4666.7 200 4900C200 5133.3 200 5366.7 200 5600C200 5833.3 200 6066.7 200 6300C200 6533.3 200 6766.7 200 6883.3L200 7000Z" fill="#de5d2b"></path><path d="M138 7000L137 6883.3C136 6766.7 134 6533.3 133.8 6300C133.7 6066.7 135.3 5833.3 135.3 5600C135.3 5366.7 133.7 5133.3 134.7 4900C135.7 4666.7 139.3 4433.3 145.7 4200C152 3966.7 161 3733.3 160.7 3500C160.3 3266.7 150.7 3033.3 147 2800C143.3 2566.7 145.7 2333.3 146.8 2100C148 1866.7 148 1633.3 145.3 1400C142.7 1166.7 137.3 933.3 138.5 700C139.7 466.7 147.3 233.3 151.2 116.7L155 0L200 0L200 116.7C200 233.3 200 466.7 200 700C200 933.3 200 1166.7 200 1400C200 1633.3 200 1866.7 200 2100C200 2333.3 200 2566.7 200 2800C200 3033.3 200 3266.7 200 3500C200 3733.3 200 3966.7 200 4200C200 4433.3 200 4666.7 200 4900C200 5133.3 200 5366.7 200 5600C200 5833.3 200 6066.7 200 6300C200 6533.3 200 6766.7 200 6883.3L200 7000Z" fill="#cd4830"></path><path d="M159 7000L160.3 6883.3C161.7 6766.7 164.3 6533.3 165.2 6300C166 6066.7 165 5833.3 167 5600C169 5366.7 174 5133.3 176 4900C178 4666.7 177 4433.3 176.8 4200C176.7 3966.7 177.3 3733.3 178 3500C178.7 3266.7 179.3 3033.3 178.7 2800C178 2566.7 176 2333.3 172.7 2100C169.3 1866.7 164.7 1633.3 162.5 1400C160.3 1166.7 160.7 933.3 159.8 700C159 466.7 157 233.3 156 116.7L155 0L200 0L200 116.7C200 233.3 200 466.7 200 700C200 933.3 200 1166.7 200 1400C200 1633.3 200 1866.7 200 2100C200 2333.3 200 2566.7 200 2800C200 3033.3 200 3266.7 200 3500C200 3733.3 200 3966.7 200 4200C200 4433.3 200 4666.7 200 4900C200 5133.3 200 5366.7 200 5600C200 5833.3 200 6066.7 200 6300C200 6533.3 200 6766.7 200 6883.3L200 7000Z" fill="#bb3434"></path></svg>