<svg id="visual" viewBox="0 0 960 540" width="960" height="540" xmlns="http://www.w3.org/2000/svg" xmlns:xlink="http://www.w3.org/1999/xlink" version="1.1"><rect x="0" y="0" width="960" height="540" fill="#ffffff"></rect><path d="M747 540L743.2 527.2C739.3 514.3 731.7 488.7 735.2 463C738.7 437.3 753.3 411.7 759.5 386C765.7 360.3 763.3 334.7 759.5 308.8C755.7 283 750.3 257 745.2 231.2C740 205.3 735 179.7 737.5 154C740 128.3 750 102.7 754.7 77C759.3 51.3 758.7 25.7 758.3 12.8L758 0L960 0L960 12.8C960 25.7 960 51.3 960 77C960 102.7 960 128.3 960 154C960 179.7 960 205.3 960 231.2C960 257 960 283 960 308.8C960 334.7 960 360.3 960 386C960 411.7 960 437.3 960 463C960 488.7 960 514.3 960 527.2L960 540Z" fill="#69e0fa"></path><path d="M774 540L770.8 527.2C767.7 514.3 761.3 488.7 763.7 463C766 437.3 777 411.7 779 386C781 360.3 774 334.7 770.8 308.8C767.7 283 768.3 257 774.2 231.2C780 205.3 791 179.7 790.2 154C789.3 128.3 776.7 102.7 771.8 77C767 51.3 770 25.7 771.5 12.8L773 0L960 0L960 12.8C960 25.7 960 51.3 960 77C960 102.7 960 128.3 960 154C960 179.7 960 205.3 960 231.2C960 257 960 283 960 308.8C960 334.7 960 360.3 960 386C960 411.7 960 437.3 960 463C960 488.7 960 514.3 960 527.2L960 540Z" fill="#25c9ff"></path><path d="M803 540L802.8 527.2C802.7 514.3 802.3 488.7 804.2 463C806 437.3 810 411.7 810.7 386C811.3 360.3 808.7 334.7 810 308.8C811.3 283 816.7 257 815.7 231.2C814.7 205.3 807.3 179.7 809 154C810.7 128.3 821.3 102.7 820.5 77C819.7 51.3 807.3 25.7 801.2 12.8L795 0L960 0L960 12.8C960 25.7 960 51.3 960 77C960 102.7 960 128.3 960 154C960 179.7 960 205.3 960 231.2C960 257 960 283 960 308.8C960 334.7 960 360.3 960 386C960 411.7 960 437.3 960 463C960 488.7 960 514.3 960 527.2L960 540Z" fill="#00afff"></path><path d="M833 540L838.5 527.2C844 514.3 855 488.7 858.7 463C862.3 437.3 858.7 411.7 855.2 386C851.7 360.3 848.3 334.7 845.7 308.8C843 283 841 257 841 231.2C841 205.3 843 179.7 844.8 154C846.7 128.3 848.3 102.7 851 77C853.7 51.3 857.3 25.7 859.2 12.8L861 0L960 0L960 12.8C960 25.7 960 51.3 960 77C960 102.7 960 128.3 960 154C960 179.7 960 205.3 960 231.2C960 257 960 283 960 308.8C960 334.7 960 360.3 960 386C960 411.7 960 437.3 960 463C960 488.7 960 514.3 960 527.2L960 540Z" fill="#0091ff"></path><path d="M900 540L895.2 527.2C890.3 514.3 880.7 488.7 880.7 463C880.7 437.3 890.3 411.7 890.3 386C890.3 360.3 880.7 334.7 876.5 308.8C872.3 283 873.7 257 877.8 231.2C882 205.3 889 179.7 893.2 154C897.3 128.3 898.7 102.7 897 77C895.3 51.3 890.7 25.7 888.3 12.8L886 0L960 0L960 12.8C960 25.7 960 51.3 960 77C960 102.7 960 128.3 960 154C960 179.7 960 205.3 960 231.2C960 257 960 283 960 308.8C960 334.7 960 360.3 960 386C960 411.7 960 437.3 960 463C960 488.7 960 514.3 960 527.2L960 540Z" fill="#006eff"></path><path d="M917 540L916.7 527.2C916.3 514.3 915.7 488.7 918.3 463C921 437.3 927 411.7 926.2 386C925.3 360.3 917.7 334.7 917.3 308.8C917 283 924 257 925 231.2C926 205.3 921 179.7 918.5 154C916 128.3 916 102.7 918.8 77C921.7 51.3 927.3 25.7 930.2 12.8L933 0L960 0L960 12.8C960 25.7 960 51.3 960 77C960 102.7 960 128.3 960 154C960 179.7 960 205.3 960 231.2C960 257 960 283 960 308.8C960 334.7 960 360.3 960 386C960 411.7 960 437.3 960 463C960 488.7 960 514.3 960 527.2L960 540Z" fill="#0f40f7"></path></svg>